<?xml version="1.0" encoding="utf-8"?>
<!-- Generator: Adobe Illustrator 19.0.0, SVG Export Plug-In . SVG Version: 6.00 Build 0)  -->
<svg version="1.1" id="Capa_1" xmlns="http://www.w3.org/2000/svg" xmlns:xlink="http://www.w3.org/1999/xlink" x="0px" y="0px"
	 viewBox="18 -18.1 96.1 96.1" style="enable-background:new 18 -18.1 96.1 96.1;" xml:space="preserve">
<style type="text/css">
	.st0{fill:#139FBB;}
</style>
<g>
	<path class="st0" d="M90.1-18.1l-12.5,0c-14,0-23.1,9.3-23.1,23.7v10.9H42c-1.1,0-2,0.9-2,2v15.8c0,1.1,0.9,2,2,2h12.5V76
		c0,1.1,0.9,2,2,2h16.4c1.1,0,2-0.9,2-2V36.2h14.7c1.1,0,2-0.9,2-2l0-15.8c0-0.5-0.2-1-0.6-1.4s-0.9-0.6-1.4-0.6H74.8V7.2
		c0-4.4,1.1-6.7,6.8-6.7l8.4,0c1.1,0,2-0.9,2-2v-14.7C92-17.2,91.2-18.1,90.1-18.1z"/>
</g>
</svg>
